<svg xmlns="http://www.w3.org/2000/svg" xmlns:xlink="http://www.w3.org/1999/xlink">
<symbol fill="currentColor" viewBox="0 0 1000 1000" id="accessibility-vision"><path d="M513.081 250.129c-4.017 0-8.041-.129-12.081-.129s-8.064.129-12.081.129C301.335 250.129 111.491 382.343 50 500c61.491 117.656 249.335 249.871 436.919 249.871 4.017 0 8.04.129 12.081.129s8.064-.129 12.081-.129C698.665 749.871 888.51 617.656 950 500c-61.49-117.657-249.335-249.871-436.919-249.871M498.62 680a180 180 0 1 1 180-180 180 180 0 0 1-180 180m-378.2-179.963c29.782-41.595 77.4-84.081 132.916-117.816a545 545 0 0 1 55.918-29.695 239.85 239.85 0 0 0 .78 295.942 537 537 0 0 1-57.553-30.6c-55.012-33.642-102.328-76.134-132.064-117.834Zm626.25 117.747a544 544 0 0 1-60.236 31.655 239.784 239.784 0 0 0-.761-299.823 536 536 0 0 1 61.852 32.517c55.01 33.642 102.326 76.136 132.061 117.836-29.786 41.595-77.401 84.076-132.919 117.812ZM597.931 453.153a48.227 48.227 0 1 1-62.472-56.6 109.731 109.731 0 1 0 62.472 56.6" style="fill-rule:evenodd"/></symbol>
<symbol fill="currentColor" viewBox="0 0 1000 1000" id="avatar"><path d="M656.7 422.409a229.96 229.96 0 0 1-315.39.008A224.95 224.95 0 0 0 224.064 615H224v210a100 100 0 0 0 100 100h450V620a224.94 224.94 0 0 0-117.3-197.591M679 255A180 180 0 1 1 499 75a180 180 0 0 1 180 180" style="fill-rule:evenodd"/></symbol>
<symbol fill="currentColor" viewBox="0 0 1000 1000" id="adult"><path d="M638 187.5A137.5 137.5 0 1 1 500.5 50 137.5 137.5 0 0 1 638 187.5m-15.763 129.164a177.47 177.47 0 0 1-243.474 0A162.5 162.5 0 0 0 288 462.5V575a75 75 0 0 0 75 75v225a50 50 0 0 0 50 50h175a50 50 0 0 0 50-50V650a75 75 0 0 0 75-75V462.5a162.5 162.5 0 0 0-90.763-145.836" style="fill:#191919;fill-rule:evenodd"/></symbol>
<symbol fill="currentColor" viewBox="0 0 1000 1000" id="add"><path d="M850 400H600V150a50 50 0 0 0-50-50H450a50 50 0 0 0-50 50v250H150a50 50 0 0 0-50 50v100a50 50 0 0 0 50 50h250v250a50 50 0 0 0 50 50h100a50 50 0 0 0 50-50V600h250a50 50 0 0 0 50-50V450a50 50 0 0 0-50-50" style="fill-rule:evenodd"/></symbol>
<symbol fill="currentColor" viewBox="0 0 1000 1000" id="apps"><path d="M175 125h250a50 50 0 0 1 50 50v250a50 50 0 0 1-50 50H175a50 50 0 0 1-50-50V175a50 50 0 0 1 50-50m0 400h250a50 50 0 0 1 50 50v250a50 50 0 0 1-50 50H175a50 50 0 0 1-50-50V575a50 50 0 0 1 50-50m400-400h250a50 50 0 0 1 50 50v250a50 50 0 0 1-50 50H575a50 50 0 0 1-50-50V175a50 50 0 0 1 50-50m0 400h250a50 50 0 0 1 50 50v250a50 50 0 0 1-50 50H575a50 50 0 0 1-50-50V575a50 50 0 0 1 50-50" style="fill-rule:evenodd"/></symbol>
<symbol fill="currentColor" viewBox="0 0 1000 1000" id="administrator"><path d="M500 435a180 180 0 1 0-180-180 180 180 0 0 0 180 180m112.682 274.158a53.342 53.342 0 1 0 53.342 53.342 53.34 53.34 0 0 0-53.342-53.342M657.7 422.409a229.96 229.96 0 0 1-315.39.008A224.95 224.95 0 0 0 225.064 615H225v210a100 100 0 0 0 100 100h450V620a224.94 224.94 0 0 0-117.3-197.591m63.183 384.984c-15.526 37.461-22.748-2.435-44.34 19.149s18.312 28.823-19.146 44.338-14.364-17.8-44.894-17.8-7.433 33.318-44.893 17.8 2.436-22.746-19.157-44.338-28.815 18.312-44.331-19.149 17.8-14.353 17.8-44.893-33.325-7.433-17.8-44.894 22.738 2.432 44.331-19.156-18.3-28.815 19.157-44.332 14.353 17.8 44.893 17.8 7.424-33.317 44.894-17.8-2.446 22.738 19.146 44.332 28.814-18.3 44.34 19.156-17.811 14.356-17.811 44.894 33.328 7.431 17.81 44.893Z" style="fill-rule:evenodd"/></symbol>
<symbol fill="currentColor" viewBox="0 0 1000 1000" id="briefcase"><path d="M875 275H125a50.147 50.147 0 0 0-50 50v500a50.147 50.147 0 0 0 50 50h750a50.147 50.147 0 0 0 50-50V325a50.147 50.147 0 0 0-50-50M475 668.75V625a25.073 25.073 0 0 1 25-25 25.073 25.073 0 0 1 25 25v50a25.073 25.073 0 0 1-25 25 25.073 25.073 0 0 1-25-25zM850 825H150a25.073 25.073 0 0 1-25-25V581.25l325 81.25V675a50.147 50.147 0 0 0 50 50 50.147 50.147 0 0 0 50-50v-12.5l325-81.25V800a25.073 25.073 0 0 1-25 25M375 225a25.073 25.073 0 0 1 25-25h200a25.073 25.073 0 0 1 25 25v25h50v-25a75.22 75.22 0 0 0-75-75H400a75.22 75.22 0 0 0-75 75v25h50z" style="fill-rule:evenodd"/></symbol>
<symbol fill="currentColor" viewBox="0 0 1000 1000" id="bed"><path d="M225,400h25V350a50.147,50.147,0,0,1,50-50H425a50.147,50.147,0,0,1,50,50v50h50V350a50.147,50.147,0,0,1,50-50H700a50.147,50.147,0,0,1,50,50v50h25a25,25,0,0,0,25-25V250a50.147,50.147,0,0,0-50-50H250a50.147,50.147,0,0,0-50,50V375A25,25,0,0,0,225,400ZM75,700a25.073,25.073,0,0,0,25,25h25v50a25.073,25.073,0,0,0,25,25h25a25.073,25.073,0,0,0,25-25V725H800v50a25.073,25.073,0,0,0,25,25h25a25.073,25.073,0,0,0,25-25V725h25a25.073,25.073,0,0,0,25-25V650H75v50ZM800,425H743.24A50.1,50.1,0,0,1,700,450H575a50.1,50.1,0,0,1-43.24-25H468.24A50.1,50.1,0,0,1,425,450H300a50.1,50.1,0,0,1-43.24-25H200c-68.75,0-125,56.25-125,125v75H925V550C925,481.25,868.75,425,800,425Z" style="fill-rule:evenodd"/></symbol>
<symbol fill="currentColor" viewBox="0 0 1000 1000" id="clock"><path d="M672.517 665.517a37.5 37.5 0 0 1-53.034 0l-146.5-146.5-.061-.065q-.623-.625-1.215-1.278c-.2-.225-.395-.456-.593-.684s-.407-.464-.6-.7c-.239-.292-.466-.59-.7-.886-.141-.183-.286-.362-.424-.548a37 37 0 0 1-.705-.992c-.115-.165-.233-.328-.346-.5-.23-.342-.447-.689-.665-1.037q-.16-.252-.317-.508a35 35 0 0 1-.594-1.033q-.162-.284-.319-.571-.26-.49-.5-.985-.17-.335-.334-.674-.212-.452-.411-.911c-.116-.263-.234-.526-.344-.792s-.218-.545-.323-.819a36 36 0 0 1-.348-.922q-.126-.36-.244-.72a39 39 0 0 1-.337-1.046c-.064-.213-.122-.427-.182-.64a37 37 0 0 1-.307-1.137c-.049-.2-.092-.4-.139-.6a36 36 0 0 1-.259-1.187c-.041-.2-.073-.409-.11-.613-.07-.393-.141-.785-.2-1.181-.035-.237-.06-.474-.09-.711-.047-.365-.1-.729-.132-1.1-.031-.314-.049-.629-.072-.943-.021-.3-.048-.587-.063-.883a38 38 0 0 1-.047-1.854v-275c0-20.71 16.79-37.5 37.5-37.5s37.5 16.79 37.5 37.5v259.47l135.515 135.516a37.5 37.5 0 0 1 0 53.034M500 75c234.721 0 425 190.279 425 425S734.721 925 500 925 75 734.721 75 500 265.279 75 500 75m0 75c-193.3 0-350 156.7-350 350s156.7 350 350 350 350-156.7 350-350-156.7-350-350-350"/></symbol>
<symbol fill="currentColor" viewBox="0 0 1000 1000" id="control-my-data"><path d="m441.521 452.839.016.007A75.147 75.147 0 1 0 574.7 509.808l.016.006 60.853-330.574ZM500 925c234.721 0 425-190.279 425-425S734.721 75 500 75 75 265.279 75 500s190.279 425 425 425M181.613 354.482A350.6 350.6 0 0 1 243.9 261.47l53.08 53.08a275.6 275.6 0 0 0-45.991 68.669l45.922 19.021-9.567 23.1-115.332-47.775a350 350 0 0 1 5.462-13.778 353 353 0 0 1 4.116-9.314Zm531.043 70.855-9.567-23.1 45.922-19.021a275.5 275.5 0 0 0-45.991-68.666l53.08-53.082.006.007a350.6 350.6 0 0 1 62.282 93.006l.019-.008a353 353 0 0 1 4.116 9.314 350 350 0 0 1 5.462 13.778ZM460.881 591.82a100.08 100.08 0 0 1-60.789-92.12 100.26 100.26 0 0 1 21.2-61.557L566.677 233.16a275.27 275.27 0 0 0-252.015 63.717l-53.08-53.077a348.64 348.64 0 0 1 221.211-93.38c.451-.022.9-.03 1.354-.05 2.388-.106 4.78-.2 7.181-.26q4.328-.11 8.672-.11c2.707 0 5.408.039 8.105.1 1.056.024 2.108.065 3.162.1 1.584.05 3.167.1 4.748.175q2.077.094 4.148.215 1.726.1 3.448.212c1.676.112 3.351.229 5.021.364.611.049 1.22.106 1.831.159a348.5 348.5 0 0 1 82.066 17.189l.027-.038q11.953 4.062 23.657 9 11.787 4.984 23.117 10.78l-.009.045a351 351 0 0 1 79.1 55.493l-53.083 53.083a276 276 0 0 0-40.374-30.577L599.33 514.216a100.115 100.115 0 0 1-138.449 77.604" style="fill-rule:evenodd"/></symbol>
<symbol fill="currentColor" viewBox="0 0 1000 1000" id="calendar-event-agenda"><path d="M800 175H700v-38c0-20.71-16.789-37-37.5-37a37.5 37.5 0 0 0-37.5 37.5V175H350.011L350 137.5a37.5 37.5 0 0 0-75 0V175H100v625a75 75 0 0 0 75 75h700V250a75 75 0 0 0-75-75m25 650H187.5a37.5 37.5 0 0 1-37.5-37.5V400h637.5a37.5 37.5 0 0 1 37.5 37.5zM250 262.5a62.4 62.4 0 0 1 25-50v50a37.5 37.5 0 0 0 75 0V250h.011v-37.493A62.5 62.5 0 1 1 250 262.5m350 0a62.4 62.4 0 0 1 25-50v50a37.5 37.5 0 0 0 75 0l-.011-12.5H700v-37a61.47 61.47 0 0 1 25 49.5 62.5 62.5 0 0 1-125 0M237.5 450a37.5 37.5 0 1 0 37.5 37.5 37.5 37.5 0 0 0-37.5-37.5M725 462H350c-13.807 0-25 11.693-25 25.5s11.193 24.5 25 24.5h375c13.807 0 25-10.693 25-24.5S738.807 462 725 462M237.5 575a37.5 37.5 0 1 0 37.5 37.5 37.5 37.5 0 0 0-37.5-37.5M725 587H350c-13.807 0-25 11.693-25 25.5s11.193 24.5 25 24.5h375c13.807 0 25-10.693 25-24.5S738.807 587 725 587M237.5 700a37.5 37.5 0 1 0 37.5 37.5 37.5 37.5 0 0 0-37.5-37.5M725 712H350c-13.807 0-25 11.693-25 25.5s11.193 24.5 25 24.5h375c13.807 0 25-10.693 25-24.5S738.807 712 725 712" style="fill-rule:evenodd"/></symbol>
<symbol fill="currentColor" viewBox="0 0 1000 1000" id="collective-class-training"><path d="M338 875V696.837A100.18 100.18 0 0 1 263 600V487.5a187.2 187.2 0 0 1 17.626-79.433 166.44 166.44 0 0 1-107.2-45.325A152.94 152.94 0 0 0 88 500v119.118C88 658.1 120.015 690 159 690v185a49.65 49.65 0 0 0 49.588 50h148.57A74.7 74.7 0 0 1 338 875m489.576-512.258a166.44 166.44 0 0 1-107.2 45.325A187.2 187.2 0 0 1 738 487.5V600a100.18 100.18 0 0 1-75 96.837V875a74.7 74.7 0 0 1-19.158 50h148.57A49.65 49.65 0 0 0 842 875V690c38.985 0 71-31.9 71-70.882V500a152.94 152.94 0 0 0-85.424-137.258M713 125a124.4 124.4 0 0 0-65.376 18.446c.9 1.913 1.769 3.84 2.6 5.794a162.38 162.38 0 0 1-24.162 166.435l7.231 3.564a187.9 187.9 0 0 1 66.676 55.086A125 125 0 1 0 713 125m-75 87.5A137.5 137.5 0 1 1 500.5 75 137.5 137.5 0 0 1 638 212.5m-15.763 129.164a177.47 177.47 0 0 1-243.474 0A162.5 162.5 0 0 0 288 487.5V600a75 75 0 0 0 75 75v200a50 50 0 0 0 50 50h175a50 50 0 0 0 50-50V675a75 75 0 0 0 75-75V487.5a162.5 162.5 0 0 0-90.763-145.836m-321.2 32.661a187.9 187.9 0 0 1 66.676-55.086l7.231-3.564A162.7 162.7 0 0 1 350.78 149.24c.827-1.954 1.7-3.881 2.6-5.794A125 125 0 1 0 288 375a126 126 0 0 0 13.035-.675Z" style="fill-rule:evenodd"/></symbol>
<symbol fill="currentColor" viewBox="0 0 1000 1000" id="delete"><path d="M817.493 676.165a49.977 49.977 0 0 1 0 70.664l-70.664 70.664a49.977 49.977 0 0 1-70.664 0L499.5 640.828 322.835 817.493a49.977 49.977 0 0 1-70.664 0l-70.664-70.664a49.977 49.977 0 0 1 0-70.664L358.172 499.5 181.507 322.835a49.977 49.977 0 0 1 0-70.664l70.664-70.664a49.977 49.977 0 0 1 70.664 0L499.5 358.172l176.665-176.665a49.977 49.977 0 0 1 70.664 0l70.664 70.664a49.977 49.977 0 0 1 0 70.664L640.828 499.5Z" style="fill-rule:evenodd"/></symbol>
<symbol fill="currentColor" viewBox="0 0 1000 1000" id="device-smartphone"><path d="M700.051 75h-400.1A49.975 49.975 0 0 0 250 125v750a49.975 49.975 0 0 0 49.949 50h400.1A49.975 49.975 0 0 0 750 875V125a49.975 49.975 0 0 0-49.949-50M462.5 100h75a12.5 12.5 0 0 1 0 25h-75a12.5 12.5 0 0 1 0-25M500 900a25 25 0 1 1 25-25 25 25 0 0 1-25 25m200-75H300V150h400z" style="fill-rule:evenodd"/></symbol>
<symbol fill="currentColor" viewBox="0 0 1000 1000" id="edashboard"><path d="M500.5 75.5c-234.721 0-425 190.279-425 425s190.279 425 425 425 425-190.279 425-425-190.279-425-425-425M325.031 803.455a346 346 0 0 1-72.018-55.468c-.873-.873-2.191-1.764-3.054-2.645V703.1l75.072-75.077zm150 46.082a347.5 347.5 0 0 1-75.035-13.72V580l58.4 58.318 16.653 16.953ZM625 827.515a341.5 341.5 0 0 1-74.6 19.457l-.43-243.663L625 528zm149.985-110.457a348 348 0 0 1-27 30.929 359.6 359.6 0 0 1-48.018 40.2L700 481.991l11.486 11.064 35.73 35.729 27.765 28.321Zm.036-216.558-89.165-89.644-199.182 199.179-100-100-180.3 180.3a348 348 0 0 1-43.65-97.769l223.95-223.952 100 100 128.47-128.469-89.29-89.173 224.115.059a25 25 0 0 1 25.07 24.93Z" style="fill-rule:evenodd"/></symbol>
<symbol fill="currentColor" viewBox="0 0 1000 1000" id="employees"><path d="M338,875V696.837A100.181,100.181,0,0,1,263,600V487.5a187.166,187.166,0,0,1,17.626-79.433,166.442,166.442,0,0,1-107.2-45.325A152.938,152.938,0,0,0,88,500V619.118C88,658.1,120.015,690,159,690V875a49.65,49.65,0,0,0,49.588,50h148.57A74.693,74.693,0,0,1,338,875ZM827.576,362.742a166.442,166.442,0,0,1-107.2,45.325A187.166,187.166,0,0,1,738,487.5V600a100.18,100.18,0,0,1-75,96.837V875a74.693,74.693,0,0,1-19.158,50h148.57A49.65,49.65,0,0,0,842,875V690c38.985,0,71-31.9,71-70.882V500A152.938,152.938,0,0,0,827.576,362.742ZM713,125a124.4,124.4,0,0,0-65.376,18.446c0.9,1.913,1.769,3.84,2.6,5.794a162.383,162.383,0,0,1-24.162,166.435l7.231,3.564a187.914,187.914,0,0,1,66.676,55.086A125,125,0,1,0,713,125Zm-75,87.5A137.5,137.5,0,1,1,500.5,75,137.5,137.5,0,0,1,638,212.5ZM622.237,341.664a177.469,177.469,0,0,1-243.474,0A162.5,162.5,0,0,0,288,487.5V600a75,75,0,0,0,75,75V875a50,50,0,0,0,50,50H588a50,50,0,0,0,50-50V675a75,75,0,0,0,75-75V487.5A162.5,162.5,0,0,0,622.237,341.664ZM500.5,650L463,600.871,486,425h30l22,175.871ZM301.035,374.325a187.914,187.914,0,0,1,66.676-55.086l7.231-3.564A162.7,162.7,0,0,1,350.78,149.24c0.827-1.954,1.7-3.881,2.6-5.794A125,125,0,1,0,288,375,126.151,126.151,0,0,0,301.035,374.325Z" style="fill-rule:evenodd"/></symbol>
<symbol fill="currentColor" viewBox="0 0 1000 1000" id="email"><path d="M811.5 175H100v537a88.05 88.05 0 0 0 88.369 88H900V261.3c0-48.8-39.676-86.3-88.5-86.3M825 362.644 588.758 590h-.2c-23.152 23-54.541 34.949-89.128 34.949S433.471 613 410.274 590h-.62L175 362.8v-86.539C268.964 369.145 439.987 535 439.987 535h.054c15.3 16 36.133 22.8 59.119 22.8 24.349 0 46.26-9.8 61.76-26.8h.108L825 275.051z" style="fill-rule:evenodd"/></symbol>
<symbol fill="currentColor" viewBox="0 0 1000 1000" id="form-chevron-left"><path d="M597.22 225 402.78 421.43 325 500l77.78 78.57L597.22 775 675 696.43 480.56 500 675 303.57z" style="fill:#000;stroke-width:0"/></symbol>
<symbol fill="currentColor" viewBox="0 0 1000 1000" id="form-chevron-right"><path d="m402.78 775 194.44-196.43L675 500l-77.78-78.57L402.78 225 325 303.57 519.44 500 325 696.43z" style="fill:#000;stroke-width:0"/></symbol>
<symbol fill="currentColor" viewBox="0 0 1000 1000" id="form-triangle-down"><path d="M500 604 292 396h416z"/></symbol>
<symbol fill="currentColor" viewBox="0 0 1000 1000" id="form-triangle-up"><path d="m500 396 208 208H292z"/></symbol>
<symbol fill="currentColor" viewBox="0 0 1000 1000" id="filter"><path d="M900 125v75L575 525v400L425 775V525L100 200v-75a50.005 50.005 0 0 1 50-50h700a50.005 50.005 0 0 1 50 50" style="fill-rule:evenodd"/></symbol>
<symbol fill="currentColor" viewBox="0 0 1000 1000" id="group"><path d="M338 875V696.837A100.18 100.18 0 0 1 263 600V487.5a187.2 187.2 0 0 1 17.626-79.433 166.44 166.44 0 0 1-107.2-45.325A152.94 152.94 0 0 0 88 500v119.118C88 658.1 120.015 690 159 690v185a49.65 49.65 0 0 0 49.588 50h148.57A74.7 74.7 0 0 1 338 875m489.576-512.258a166.44 166.44 0 0 1-107.2 45.325A187.2 187.2 0 0 1 738 487.5V600a100.18 100.18 0 0 1-75 96.837V875a74.7 74.7 0 0 1-19.158 50h148.57A49.65 49.65 0 0 0 842 875V690c38.985 0 71-31.9 71-70.882V500a152.94 152.94 0 0 0-85.424-137.258M713 125a124.4 124.4 0 0 0-65.376 18.446c.9 1.913 1.769 3.84 2.6 5.794a162.38 162.38 0 0 1-24.162 166.435l7.231 3.564a187.9 187.9 0 0 1 66.676 55.086A125 125 0 1 0 713 125m-75 87.5A137.5 137.5 0 1 1 500.5 75 137.5 137.5 0 0 1 638 212.5m-15.763 129.164a177.47 177.47 0 0 1-243.474 0A162.5 162.5 0 0 0 288 487.5V600a75 75 0 0 0 75 75v200a50 50 0 0 0 50 50h175a50 50 0 0 0 50-50V675a75 75 0 0 0 75-75V487.5a162.5 162.5 0 0 0-90.763-145.836m-321.2 32.661a187.9 187.9 0 0 1 66.676-55.086l7.231-3.564A162.7 162.7 0 0 1 350.78 149.24c.827-1.954 1.7-3.881 2.6-5.794A125 125 0 1 0 288 375a126 126 0 0 0 13.035-.675Z" style="fill-rule:evenodd"/></symbol>
<symbol fill="currentColor" viewBox="0 0 1000 1000" id="hide"><path d="m809.208 350.568-43.17 43.17c47.061 31.481 87.2 69.038 113.545 105.978-29.782 41.6-77.4 84.079-132.916 117.815a544 544 0 0 1-60.236 31.655 240.33 240.33 0 0 0 42.215-218.056l-50.895 50.895q.855 8.747.869 17.722a179.994 179.994 0 0 1-180 180q-8.971 0-17.722-.869L416.177 743.6a429.4 429.4 0 0 0 70.742 6.022c4.017 0 8.04.129 12.081.129s8.064-.129 12.081-.129C698.665 749.621 888.51 617.406 950 499.75c-26.641-50.976-77.011-104.677-140.792-149.182M120.417 499.784C150.2 458.19 197.82 415.7 253.333 381.968a545 545 0 0 1 55.918-29.694 240.37 240.37 0 0 0-38.318 223.517l49.622-49.622a180.093 180.093 0 0 1 204.487-204.487l64.736-64.736a432 432 0 0 0-76.7-7.066c-4.017 0-8.041-.13-12.081-.13s-8.064.13-12.081.13C301.335 249.88 111.491 382.093 50 499.75c27.215 52.073 79.192 106.99 144.932 152.043l43.24-43.241c-48.872-32.038-90.631-70.73-117.755-108.768M823.218 136l-318.76 318.76-100.54 100.54L133.25 825.969 186.281 879l275.731-275.731L602.14 463.141l274.11-274.11Z" style="fill-rule:evenodd"/></symbol>
<symbol fill="currentColor" viewBox="0 0 1000 1000" id="house"><path d="M825 375v-25L675 200h-75v-37.5a12.5 12.5 0 0 0-12.5-12.5h-25a12.5 12.5 0 0 0-12.5 12.5V200H400v-37.5a12.5 12.5 0 0 0-12.5-12.5h-25a12.5 12.5 0 0 0-12.5 12.5V200h-75L125 350v25h50v475h-25v25h650v-25h-25V375zM350 775H250v-75a50 50 0 0 1 50-50 50 50 0 0 1 50 50zm0-250H250v-75a50 50 0 0 1 50-50 50 50 0 0 1 50 50zm175 325H425V700a50 50 0 0 1 50-50 50 50 0 0 1 50 50zm0-325H425v-75a50 50 0 0 1 50-50 50 50 0 0 1 50 50zm175 250H600v-75a50 50 0 0 1 50-50 50 50 0 0 1 50 50zm0-250H600v-75a50 50 0 0 1 50-50 50 50 0 0 1 50 50z" style="fill-rule:evenodd"/></symbol>
<symbol fill="currentColor" viewBox="0 0 1000 1000" id="inside"><path d="M750 500v300a75 75 0 0 1-75 75H325a75 75 0 0 1-75-75v-75H150a25.073 25.073 0 0 1-25-25V600a25.073 25.073 0 0 1 25-25h100v-75H100l150-149.077V225h126.7l48.3-48h.009a97.837 97.837 0 0 1 149.981 0h.01l325 323zM399.948 629.983 299.848 550v47.307A25 25 0 0 1 300 600H150v100h150a25 25 0 0 1-.152 2.693V750l100.1-79.983a25.622 25.622 0 0 0 0-40.034" style="fill-rule:evenodd"/></symbol>
<symbol fill="currentColor" viewBox="0 0 1000 1000" id="info"><path d="M500 75.5c-234.72 0-425 190.28-425 425s190.28 425 425 425 425-190.28 425-425-190.28-425-425-425m0 100a75 75 0 1 1-75 75 75 75 0 0 1 75-75m125 600H400v-25.737l5.287-.167c15.555-.5 27.115-4.919 34.368-13.136 2.576-2.972 6.956-13.1 6.956-47.153v-227.2c0-32.392-4.523-44.6-8.311-49.141-5.359-6.391-16.516-10.147-33.17-11.156l-5.13-.31v-26h175v313.807c0 32.415 8.457 44.618 12.24 49.142 5.34 6.389 15.68 10.142 32.625 11.152l5.135.3v25.6Z" style="fill-rule:evenodd"/></symbol>
<symbol fill="currentColor" viewBox="0 0 1000 1000" id="le-vote"><g style="isolation:isolate"><path d="M372.45 345a57.69 57.69 0 0 0-78.45 3l-23.1 23.12a57.79 57.79 0 0 0-4.25 77l184.82 231.2a57.71 57.71 0 0 0 90.19 0l369.65-462.4a57.76 57.76 0 0 0-84.58-78.26L485 469.8Zm501.93-46.3-69.92 87.4A324.2 324.2 0 0 1 825 500c0 179.49-145.51 325-325 325S175 679.49 175 500s145.51-325 325-325a323.5 323.5 0 0 1 191.44 62.37L764.09 167A423.18 423.18 0 0 0 500 75C265.28 75 75 265.28 75 500s190.28 425 425 425 425-190.28 425-425a423.1 423.1 0 0 0-50.62-201.31Z" style="fill-rule:evenodd" transform="translate(-75 -75)"/></g></symbol>
<symbol fill="currentColor" viewBox="0 0 1000 1000" id="more-dots"><circle cx="200" cy="500" r="100"/><circle cx="500" cy="500" r="100"/><circle cx="800" cy="500" r="100"/></symbol>
<symbol fill="currentColor" viewBox="0 0 1000 1000" id="mahali"><path d="M775 350c0-151.875-123.123-275-275-275S225 198.125 225 350a273.74 273.74 0 0 0 36.235 136.528L500 925l238.769-438.472A273.73 273.73 0 0 0 775 350m-75-12.5h-75v150a37.5 37.5 0 0 1-37.5 37.5h-175a37.5 37.5 0 0 1-37.5-37.5v-150h-75l75-76.312V200h60.136l38.064-38.729v.011a37.477 37.477 0 0 1 53.54-.065v-.009Zm-262.5 125a25 25 0 0 1-25-25v-100h100a25 25 0 0 1 25 25v100z" style="fill-rule:evenodd"/></symbol>
<symbol fill="currentColor" viewBox="0 0 1000 1000" id="pencil"><path d="m876.2 238.316-51.077-51.108-63.846-63.884a81.08 81.08 0 0 0-68.3-23.078q-1.067.141-2.131.32a81 81 0 0 0-13.825 3.471l-.091.03a80.9 80.9 0 0 0-30.578 19.257L186.663 583.292l-53.526 176.424-13.253 43.678-18.684 61.59a29 29 0 0 0-.485 1.827c-.045.192-.078.383-.119.575-.087.415-.17.83-.238 1.242-.037.227-.066.453-.1.68a26 26 0 0 0-.245 2.931q-.01.345-.013.689.001.564.025 1.123c.008.211.013.422.027.632.027.425.069.847.116 1.267.018.152.028.305.048.456q.111.855.276 1.693c.021.108.05.214.072.322q.143.673.313 1.334c.051.191.11.379.165.568q.15.531.323 1.053.106.31.219.617a27 27 0 0 0 .629 1.586q.207.473.431.935c.095.2.188.393.288.587.164.322.339.638.516.952.095.171.188.343.287.511q.342.576.713 1.134c.059.09.114.183.175.273q.464.685.969 1.341c.1.127.2.248.3.373.246.308.493.614.752.911.135.156.277.307.415.46q.35.387.713.76.233.236.472.467.361.352.736.69.246.227.5.443.39.335.792.655c.167.132.331.266.5.395.3.228.6.445.912.66.147.1.29.21.438.309q.688.463 1.405.885.032.019.065.036.687.4 1.4.759c.162.082.329.156.494.235.337.163.677.323 1.022.472q.298.124.592.241a26 26 0 0 0 1.61.591q.493.162.995.306.317.093.638.177c.352.092.706.172 1.062.249.2.044.4.091.6.129.415.08.835.145 1.256.206.147.021.291.048.438.067q.856.106 1.726.159c.117.007.236.006.353.011.4.019.8.037 1.208.037.056 0 .113-.006.169-.006.358 0 .719-.023 1.08-.04.283-.013.565-.019.85-.041.377-.03.758-.081 1.137-.127.272-.033.542-.056.814-.1.421-.064.845-.153 1.269-.237.233-.047.466-.082.7-.135q.963-.219 1.93-.51c.017 0 .034-.008.051-.014l21.618-6.566 83.587-25.391 176.317-53.56 262.68-262.838L876.2 353.308a80.93 80.93 0 0 0 22.163-41.279q.136-.669.26-1.338.611-3.294.95-6.62c.026-.248.053-.5.076-.744q.342-3.7.35-7.422v-.093a81.08 81.08 0 0 0-23.799-57.496M359.047 755.779l37.419 37.442-176.318 53.559-66.969-67.01 53.527-176.424 37.419 37.441 459.69-459.967 19.154 19.165-459.691 459.968 76.615 76.661 459.691-459.968 19.154 19.166Z" style="fill-rule:evenodd"/></symbol>
<symbol fill="currentColor" viewBox="0 0 1000 1000" id="reload"><path d="m782.856 217.17-.013-.013a400 400 0 0 0-565.686 0c-156.21 156.21-156.21 409.476 0 565.686a400 400 0 0 0 565.686 0L676.777 676.777a250 250 0 1 1 0-353.554l.028.027L575.083 425H825a50 50 0 0 0 50-50V125Z" style="fill-rule:evenodd"/></symbol>
<symbol fill="currentColor" viewBox="0 0 1000 1000" id="session-leave"><path d="M726.227 850H273.773A23.774 23.774 0 0 1 250 826.227V173.773A23.774 23.774 0 0 1 273.773 150h452.454A23.774 23.774 0 0 1 750 173.773v52.454A23.774 23.774 0 0 0 773.773 250h27.454A23.774 23.774 0 0 0 825 226.227v-99A52.23 52.23 0 0 0 772.77 75H224.238A49.24 49.24 0 0 0 175 124.238v746.539A54.22 54.22 0 0 0 229.223 925h543.429A52.35 52.35 0 0 0 825 872.652v-98.879A23.774 23.774 0 0 0 801.227 750h-27.454A23.774 23.774 0 0 0 750 773.773v52.454A23.774 23.774 0 0 1 726.227 850M575 625H400c-25.141 0-50-25.687-50-50V425c0-24.313 24.859-50 50-50h175V250l233.46 210.5a56.8 56.8 0 0 1 16.54 40 56.8 56.8 0 0 1-16.542 40L575 750z" style="fill-rule:evenodd"/></symbol>
<symbol fill="currentColor" viewBox="0 0 1000 1000" id="sort-by"><path d="M850 825H424a50 50 0 0 1 0-100h426a50 50 0 0 1 0 100M699 674H423a50 50 0 0 1 0-100h276a50 50 0 0 1 0 100M550 525H425a50 50 0 0 1 0-100h125a50 50 0 0 1 0 100M374.3 360.819 325 311.525V773.5a50.5 50.5 0 0 1-50.5 50.5c-27.89 0-49.5-22.61-49.5-50.5V311.537l-49.368 49.368a48.5 48.5 0 1 1-68.59-68.589l128.28-128.28a48.36 48.36 0 0 1 38.412-14c.422-.011.841-.032 1.266-.032.963 0 2.051-.054 3 0a48.1 48.1 0 0 1 36.678 14.2L442.8 292.316a48.439 48.439 0 1 1-68.5 68.503" style="fill-rule:evenodd"/></symbol>
<symbol fill="currentColor" viewBox="0 0 1000 1000" id="session-enter"><path d="M273.773 850h452.454A23.774 23.774 0 0 0 750 826.227V173.773A23.774 23.774 0 0 0 726.227 150H273.773A23.774 23.774 0 0 0 250 173.773v52.454A23.774 23.774 0 0 1 226.227 250h-27.454A23.774 23.774 0 0 1 175 226.227v-99A52.23 52.23 0 0 1 227.23 75h548.532A49.24 49.24 0 0 1 825 124.238v746.539A54.22 54.22 0 0 1 770.777 925H227.348A52.35 52.35 0 0 1 175 872.652v-98.879A23.774 23.774 0 0 1 198.773 750h27.454A23.774 23.774 0 0 1 250 773.773v52.454A23.774 23.774 0 0 0 273.773 850M400 375H225c-25.141 0-50 25.687-50 50v150c0 24.313 24.859 50 50 50h175v125l233.46-210.5a56.8 56.8 0 0 0 16.54-40 56.8 56.8 0 0 0-16.542-40L400 250z" style="fill-rule:evenodd"/></symbol>
<symbol fill="currentColor" viewBox="0 0 1000 1000" id="tick-confirmation"><path d="M500 75C265.279 75 75 265.279 75 500s190.279 425 425 425 425-190.279 425-425S734.721 75 500 75m222.051 264.988-254.642 320-.007-.006a39.635 39.635 0 0 1-62.125 0l-.006.005-127.321-160 .006-.006a40.14 40.14 0 0 1 2.928-53.267l15.915-16a39.61 39.61 0 0 1 54.022-2.077l.006-.008L428.382 515 663.77 285.818l.006.008A39.734 39.734 0 0 1 730.77 315a39.95 39.95 0 0 1-8.726 24.981Z" style="fill-rule:evenodd"/></symbol>
</svg>
